<?xml version="1.0" standalone="no"?>
<!DOCTYPE svg PUBLIC "-//W3C//DTD SVG 20010904//EN"
 "http://www.w3.org/TR/2001/REC-SVG-20010904/DTD/svg10.dtd">
<svg version="1.0" xmlns="http://www.w3.org/2000/svg"
 width="1200.000000pt" height="1200.000000pt" viewBox="0 0 1200.000000 1200.000000"
 preserveAspectRatio="xMidYMid meet">

<g transform="translate(0.000000,1200.000000) scale(0.100000,-0.100000)"
fill="#000000" stroke="none">
<path d="M5885 9007 c-360 -208 -790 -456 -920 -531 -82 -49 -264 -153 -402
-233 l-253 -145 0 -972 0 -973 403 -233 c1118 -646 1283 -740 1297 -734 8 3
355 202 770 442 415 240 790 456 833 480 l77 45 0 972 0 972 -157 91 c-87 50
-255 146 -373 215 -892 515 -1138 657 -1153 662 -6 3 -61 -23 -122 -58z m437
-288 c172 -100 408 -236 523 -303 116 -67 319 -185 452 -262 l243 -139 0 -890
0 -890 -98 -56 c-91 -52 -362 -209 -807 -466 -508 -294 -628 -363 -636 -363
-7 0 -220 122 -1144 657 -137 80 -283 164 -322 187 l-73 41 0 890 0 890 268
154 c147 85 382 221 522 302 140 80 363 210 495 287 132 77 245 141 252 141 6
1 152 -81 325 -180z"/>
<path d="M5924 7816 c-21 -21 -34 -44 -34 -60 0 -16 -7 -29 -17 -33 -112 -37
-226 -132 -270 -223 -46 -94 -51 -138 -52 -445 -2 -326 -2 -325 -73 -325 l-38
0 0 -55 0 -55 199 0 199 0 0 -54 c0 -68 28 -119 83 -146 116 -60 242 16 242
145 l0 55 198 0 199 0 0 55 0 55 -38 0 c-70 0 -70 -2 -74 340 -4 292 -5 308
-28 365 -56 144 -158 245 -291 288 -9 3 -19 21 -23 41 -9 49 -56 86 -108 86
-32 0 -47 -7 -74 -34z m228 -223 c63 -34 123 -100 156 -171 26 -54 27 -65 30
-242 1 -102 3 -245 5 -318 l2 -132 -345 0 -345 0 2 137 c2 76 4 221 5 323 l3
186 33 66 c85 172 290 240 454 151z m-112 -993 c11 -11 20 -29 20 -39 0 -25
-46 -62 -68 -54 -28 10 -52 35 -52 55 0 24 35 58 60 58 11 0 29 -9 40 -20z"/>
<path d="M3595 4353 c-79 -108 -212 -412 -299 -683 -80 -248 -85 -348 -19
-421 19 -21 41 -39 48 -39 8 0 14 28 18 88 19 266 201 724 379 950 39 51 49
69 41 81 -9 15 -108 70 -125 71 -4 0 -24 -21 -43 -47z"/>
<path d="M8498 4366 c-59 -71 -161 -234 -218 -349 -96 -194 -200 -544 -200
-673 0 -40 24 -104 39 -104 6 0 29 37 52 83 59 117 142 238 227 328 70 75 137
127 148 116 3 -3 -7 -29 -21 -57 -43 -85 -115 -276 -121 -322 -7 -54 22 -98
64 -98 33 0 102 31 121 53 12 15 9 17 -29 17 l-43 0 6 36 c12 74 116 262 204
370 l42 53 -34 30 c-52 46 -104 58 -157 37 -60 -22 -158 -107 -248 -211 -41
-48 -76 -83 -77 -78 -6 18 60 188 117 303 62 123 136 230 249 358 55 63 68 82
57 91 -19 16 -76 38 -116 44 -31 5 -38 1 -62 -27z"/>
<path d="M2196 4269 c-109 -18 -194 -77 -241 -169 -24 -45 -25 -143 -2 -186
35 -67 131 -129 354 -227 226 -100 274 -165 190 -255 -49 -53 -94 -67 -212
-67 -120 0 -174 14 -278 68 -62 33 -153 123 -163 163 -9 36 -21 30 -49 -26
-26 -51 -32 -101 -16 -142 26 -69 180 -167 321 -204 90 -23 221 -24 287 -1
142 50 230 214 193 365 -21 89 -58 121 -270 226 -246 122 -310 169 -310 224 0
30 48 71 103 87 139 41 344 -3 435 -94 l35 -35 23 27 c31 36 48 102 37 141 -7
27 -19 35 -83 60 -126 48 -246 64 -354 45z"/>
<path d="M6080 4266 c-197 -44 -365 -209 -448 -439 -74 -204 -65 -416 23 -531
34 -44 130 -92 203 -101 49 -7 57 -5 105 27 98 66 262 241 255 274 -2 13 -14
7 -53 -28 -76 -69 -199 -154 -250 -174 -45 -17 -47 -16 -73 2 -15 11 -38 42
-52 70 -23 44 -25 60 -24 164 2 142 25 235 93 375 100 203 227 325 340 325 50
0 74 -19 73 -59 -1 -35 -38 -105 -71 -135 -28 -25 -26 -48 5 -80 38 -37 66
-34 97 12 45 65 59 111 55 176 -4 53 -8 63 -38 87 -33 28 -106 50 -158 48 -15
0 -52 -6 -82 -13z"/>
<path d="M3806 4143 c-20 -88 -21 -99 -11 -156 9 -60 30 -71 59 -31 12 16 45
57 74 92 l54 62 -33 31 c-33 31 -67 51 -105 63 -20 6 -23 1 -38 -61z"/>
<path d="M9036 4143 c-20 -88 -21 -99 -11 -156 9 -60 30 -71 59 -31 12 16 45
57 74 92 l54 62 -33 31 c-33 31 -67 51 -105 63 -20 6 -23 1 -38 -61z"/>
<path d="M4008 3863 c-80 -135 -152 -320 -178 -455 -12 -64 -11 -70 11 -115
13 -26 29 -49 36 -51 6 -2 50 48 96 110 107 142 203 247 264 287 25 17 48 29
50 27 2 -2 -10 -37 -26 -79 -17 -41 -33 -97 -37 -124 -18 -138 64 -206 180
-149 65 32 66 53 3 52 l-42 -1 -3 45 c-2 24 2 65 9 90 18 66 96 223 130 260
l29 32 -20 28 c-11 16 -34 31 -51 35 -71 16 -211 -93 -379 -294 -140 -168
-130 -128 38 156 42 72 53 98 48 118 -8 33 -74 105 -95 105 -11 0 -35 -29 -63
-77z"/>
<path d="M9238 3863 c-80 -135 -152 -320 -178 -455 -12 -64 -11 -70 11 -115
13 -26 29 -49 36 -51 6 -2 50 48 96 110 107 142 203 247 264 287 25 17 48 29
50 27 2 -2 -10 -37 -26 -79 -17 -41 -33 -97 -37 -124 -18 -138 64 -206 180
-149 65 32 66 53 3 52 l-42 -1 -3 45 c-2 24 2 65 9 90 18 66 96 223 130 260
l29 32 -20 28 c-11 16 -34 31 -51 35 -71 16 -211 -93 -379 -294 -140 -168
-130 -128 38 156 42 72 53 98 48 118 -8 33 -74 105 -95 105 -11 0 -35 -29 -63
-77z"/>
<path d="M10165 3931 c-66 -16 -156 -75 -224 -147 -132 -138 -185 -309 -129
-414 14 -25 36 -52 51 -60 24 -13 29 -13 59 4 18 10 59 39 91 63 31 24 57 40
57 34 0 -19 -63 -188 -92 -245 -108 -214 -287 -327 -404 -256 -41 26 -56 9
-23 -27 38 -40 106 -66 180 -67 57 -1 75 4 135 34 120 61 212 199 325 486 39
99 92 235 120 303 28 72 45 129 40 134 -5 5 -26 11 -47 14 -39 5 -39 5 -68
-53 -67 -138 -171 -267 -275 -342 -61 -44 -75 -42 -67 8 15 97 99 234 210 346
79 80 144 118 187 112 34 -5 34 -6 14 33 -24 45 -68 57 -140 40z"/>
<path d="M3000 3921 c-123 -38 -243 -169 -295 -324 -42 -125 -32 -218 31 -280
54 -54 122 -69 186 -43 49 21 151 99 182 141 44 57 19 60 -42 4 -142 -127
-252 -132 -252 -10 l0 48 95 46 c159 77 233 165 251 295 6 47 4 56 -17 79 -24
26 -78 54 -101 52 -7 0 -24 -4 -38 -8z m65 -167 c-18 -61 -54 -114 -107 -156
-60 -49 -127 -92 -134 -86 -10 11 38 115 78 169 46 62 120 119 155 119 22 0
22 -1 8 -46z"/>
<path d="M6604 3919 c-82 -24 -199 -139 -250 -246 -13 -29 -31 -80 -40 -115
-37 -145 21 -277 131 -295 80 -13 232 78 300 181 51 76 75 148 81 240 5 70 3
85 -15 114 -13 21 -29 32 -43 32 -15 0 -38 17 -66 50 -45 53 -48 54 -98 39z
m128 -145 c18 -62 -11 -215 -56 -295 -48 -83 -153 -169 -209 -169 -46 0 -54
120 -13 219 49 120 126 216 211 260 48 25 56 23 67 -15z"/>
<path d="M7827 3920 c-149 -38 -282 -197 -294 -354 -8 -90 15 -161 72 -224 50
-56 98 -77 149 -68 38 7 166 94 190 128 28 39 20 53 -16 28 -55 -36 -171 -90
-195 -90 -74 0 -81 186 -12 325 34 68 69 110 135 160 109 84 154 -1 59 -112
l-36 -42 27 -17 c23 -16 29 -16 52 -3 82 46 101 200 31 250 -33 23 -108 32
-162 19z"/>
<path d="M4832 3885 c-147 -64 -300 -334 -277 -489 14 -92 66 -137 133 -115
46 15 139 110 192 195 23 38 39 60 35 49 -4 -11 -13 -49 -21 -85 -26 -127 8
-186 95 -163 35 9 35 10 20 68 -16 56 10 181 67 323 25 62 42 117 38 123 -6
10 -65 39 -78 39 -2 0 -32 -53 -67 -117 -106 -200 -197 -325 -262 -359 -24
-13 -28 -13 -33 1 -4 9 -4 38 -2 66 12 116 143 301 253 355 30 14 55 28 55 31
0 11 -43 59 -68 75 -32 21 -37 21 -80 3z"/>
<path d="M7162 3885 c-147 -64 -300 -334 -277 -489 14 -92 66 -137 133 -115
46 15 139 110 192 195 23 38 39 60 35 49 -4 -11 -13 -49 -21 -85 -26 -127 8
-186 95 -163 35 9 35 10 20 68 -16 56 10 181 67 323 25 62 42 117 38 123 -6
10 -65 39 -78 39 -2 0 -32 -53 -67 -117 -106 -200 -197 -325 -262 -359 -24
-13 -28 -13 -33 1 -4 9 -4 38 -2 66 12 116 143 301 253 355 30 14 55 28 55 31
0 11 -43 59 -68 75 -32 21 -37 21 -80 3z"/>
<path d="M3683 3826 c-46 -39 -89 -145 -118 -295 -14 -74 -23 -147 -20 -162 6
-27 48 -72 76 -82 13 -4 18 4 23 44 10 73 107 319 149 378 44 61 40 76 -34
116 l-47 25 -29 -24z"/>
<path d="M8913 3826 c-46 -39 -89 -145 -118 -295 -14 -74 -23 -147 -20 -162 6
-27 48 -72 76 -82 13 -4 18 4 23 44 10 73 107 319 149 378 44 61 40 76 -34
116 l-47 25 -29 -24z"/>
</g>
</svg>
