<?xml version="1.0" encoding="utf-8"?>
<!-- Generator: Adobe Illustrator 21.1.0, SVG Export Plug-In . SVG Version: 6.00 Build 0)  -->
<svg version="1.1" id="Layer_1" xmlns="http://www.w3.org/2000/svg" xmlns:xlink="http://www.w3.org/1999/xlink" x="0px" y="0px"
	 viewBox="0 0 272.1 64.7" style="enable-background:new 0 0 272.1 64.7;" xml:space="preserve">
<style type="text/css">
	.st0{fill:url(#SVGID_1_);}
	.st1{fill:url(#SVGID_2_);}
	.st2{fill:#24ADAF;}
</style>
<linearGradient id="SVGID_1_" gradientUnits="userSpaceOnUse" x1="221.8155" y1="60.567" x2="221.8155" y2="39.53">
	<stop  offset="0" style="stop-color:#CAE3E4"/>
	<stop  offset="1" style="stop-color:#78C1C4"/>
</linearGradient>
<path class="st0" d="M221.8,60.6c-0.4,0-0.8,0-1.3-0.1V43.9v-4.3h2.5l0,4.3l0,0v16.6C222.7,60.5,222.2,60.6,221.8,60.6 M216.9,60
	c-9.2-2.2-16.1-10.5-16.1-20.4h16.1v4.3l0,0V60 M226.7,60V43.9v-4.3h16.1C242.8,49.5,236,57.7,226.7,60"/>
<linearGradient id="SVGID_2_" gradientUnits="userSpaceOnUse" x1="129.5867" y1="60.5036" x2="129.5867" y2="39.54">
	<stop  offset="0" style="stop-color:#CAE3E4"/>
	<stop  offset="1" style="stop-color:#78C1C4"/>
</linearGradient>
<path class="st1" d="M126.4,60.5c-5.8,0-10.7-2-14.8-6.1c-4.1-4.1-6.1-9-6.1-14.8l0-0.1h41.8l0,0.1v2.2H111c-0.6,0-0.8,0.3-0.7,0.8
	c0.7,3.8,2.6,7,5.6,9.6c3,2.5,6.5,3.8,10.5,3.8c3.3,0,6.3-0.9,9.1-2.7c2.7-1.8,4.8-4.2,6-7.2h4.8c-1.4,4.3-3.9,7.7-7.6,10.4
	C135,59.2,130.9,60.5,126.4,60.5 M49.5,60.5c-5.8,0-10.7-2-14.8-6.1c-4.1-4.1-6.1-9-6.1-14.8l0-0.1h41.8l0,0.1v2.2H34.1
	c-0.6,0-0.8,0.3-0.7,0.8c0.7,3.8,2.6,7,5.6,9.6c3,2.5,6.5,3.8,10.5,3.8c3.3,0,6.3-0.9,9.1-2.7c2.7-1.8,4.8-4.2,6-7.2h4.8
	c-1.4,4.3-3.9,7.7-7.6,10.4C58.1,59.2,54,60.5,49.5,60.5 M253.1,59.9h-4.5V39.5l4.5,0L253.1,59.9 M195.3,59.9H194
	c-2.9,0-5.4-1-7.5-3.1c-2.1-2.1-3.1-4.6-3.1-7.5v-9.8h4.5v9.8c0,1.7,0.6,3.1,1.8,4.3c1.2,1.2,2.7,1.8,4.4,1.8h1.3V59.9 M177.7,59.9
	h-5.5l-11-15.6c-1-1.4-1.5-3-1.5-4.8l0-0.1h4.5l0,0.1c0,0.8,0.2,1.5,0.6,2.2L177.7,59.9 M157.4,59.9H153V39.6h4.5V59.9 M99.1,59.9
	h-4.5V39.5l4.5,0V59.9 M80.6,59.9h-4.5V39.5h4.5V59.9 M10.6,59.9H6.1V39.6h4.5L10.6,59.9"/>
<path class="st2" d="M262.5,23.1h2.9v-4.4h-2.9c-3.8,0-7.1,1.4-9.8,4.1c-2.7,2.7-4.1,6-4.1,9.8v7h4.5v-7c0-2.6,0.9-4.8,2.8-6.7
	C257.7,24.1,259.9,23.1,262.5,23.1 M188.7,24.1h6.6v-4.5h-6.6c-0.6,0-0.9-0.3-0.9-0.9V6h-4.5v33.6h4.5V24.9
	C187.8,24.3,188.1,24.1,188.7,24.1 M164.9,37.5l12.7-17.9h-5.5l-10.9,15.3c-1,1.4-1.5,2.9-1.5,4.6h4.5
	C164.2,38.8,164.4,38.1,164.9,37.5 M157.4,39.6V6H153v33.6H157.4 M147.3,39.6c0-5.7-2.1-10.6-6.1-14.7c-4.1-4.1-9-6.1-14.8-6.1
	c-5.8,0-10.7,2-14.8,6.1c-4.1,4.1-6.1,9-6.1,14.7H147.3 M142.5,36.5c0.1,0.6-0.1,0.9-0.7,0.9H111c-0.6,0-0.8-0.3-0.7-0.9
	c0.7-3.8,2.6-7,5.7-9.6c3-2.5,6.5-3.8,10.5-3.8c3.9,0,7.4,1.3,10.5,3.8C139.9,29.5,141.8,32.7,142.5,36.5 M99.1,39.6V6h-4.5v33.6
	H99.1 M81.5,24h6.6v-4.4h-6.6c-0.6,0-0.9-0.3-0.9-0.9v-2.1c0-1.7,0.6-3.2,1.8-4.4c1.2-1.2,2.7-1.8,4.4-1.8h1.3V6h-1.3
	c-2.9,0-5.4,1-7.5,3.1c-2.1,2.1-3.1,4.6-3.1,7.5v22.9h4.5V24.9C80.6,24.3,80.9,24,81.5,24 M70.4,39.6c0-5.7-2.1-10.6-6.1-14.7
	c-4.1-4.1-9-6.1-14.8-6.1c-5.8,0-10.7,2-14.8,6.1c-4.1,4.1-6.1,9-6.1,14.7H70.4 M65.7,36.5c0.1,0.6-0.1,0.9-0.7,0.9H34.1
	c-0.6,0-0.8-0.3-0.7-0.9c0.7-3.8,2.6-7,5.7-9.6c3-2.5,6.5-3.8,10.5-3.8c3.9,0,7.4,1.3,10.5,3.8C63,29.5,64.9,32.7,65.7,36.5
	 M20,23.1h2.9v-4.4H20c-3.8,0-7.1,1.4-9.8,4.1c-2.7,2.7-4.1,6-4.1,9.8v7h4.5l0-7c0-2.6,0.9-4.8,2.8-6.7C15.2,24.1,17.4,23.1,20,23.1
	"/>
<path class="st2" d="M242.8,39.6c0-11.6-9.4-21-21-21c-11.6,0-21,9.4-21,21h16.1v-1.4c0-2.1-0.8-3.9-2.3-5.5
	c-1.5-1.5-3.3-2.3-5.5-2.3h-2.4v-3.6h2.4c3.2,0,5.8,1.1,8.1,3.3c2.2,2.2,3.3,4.9,3.3,8v1.4h2.5v-1.4c0-3.1,1.1-5.8,3.3-8
	c2.2-2.2,4.9-3.3,8.1-3.3h2.4v3.6h-2.4c-2.1,0-3.9,0.8-5.5,2.3c-1.5,1.5-2.3,3.3-2.3,5.5v1.4H242.8"/>
</svg>
